
<svg width="40" height="40" viewBox="0 0 40 40" fill="none" xmlns="http://www.w3.org/2000/svg">
  <path d="M20 0C9 0 0 9 0 20C0 31 9 40 20 40C31 40 40 31 40 20C40 9 31 0 20 0ZM20 36C11.2 36 4 28.8 4 20C4 11.2 11.2 4 20 4C28.8 4 36 11.2 36 20C36 28.8 28.8 36 20 36Z" fill="#00BFA5"/>
  <path d="M20 8C14.5 8 10 12.5 10 18C10 23.5 14.5 28 20 28C25.5 28 30 23.5 30 18C30 12.5 25.5 8 20 8ZM20 24C16.7 24 14 21.3 14 18C14 14.7 16.7 12 20 12C23.3 12 26 14.7 26 18C26 21.3 23.3 24 20 24Z" fill="#00BFA5"/>
  <path d="M20 14C17.8 14 16 15.8 16 18C16 20.2 17.8 22 20 22C22.2 22 24 20.2 24 18C24 15.8 22.2 14 20 14Z" fill="#00BFA5"/>
  <path d="M33 20H28.5C27.7 20 27 19.3 27 18.5C27 17.7 27.7 17 28.5 17H33.5C34.3 17 35 17.7 35 18.5C35 19.3 34.3 20 33.5 20H33Z" fill="#00BFA5"/>
  <path d="M6.5 20H11C11.8 20 12.5 19.3 12.5 18.5C12.5 17.7 11.8 17 11 17H6C5.2 17 4.5 17.7 4.5 18.5C4.5 19.3 5.2 20 6 20H6.5Z" fill="#00BFA5"/>
</svg>
